<svg viewBox="0 0 1024 1024" xmlns="http://www.w3.org/2000/svg">
  <defs>
    <linearGradient id="bg" x1="0" y1="0" x2="1" y2="1">
      <stop offset="0" stop-color="#0F1B19"/><stop offset="1" stop-color="#0B2F28"/>
    </linearGradient>
    <linearGradient id="teal" x1="0" y1="0" x2="1" y2="1">
      <stop offset="0" stop-color="#22C7A3"/><stop offset="1" stop-color="#12A28A"/>
    </linearGradient>
    <linearGradient id="mint" x1="0" y1="1" x2="1" y2="0">
      <stop offset="0" stop-color="#8EF0D0"/><stop offset="1" stop-color="#61E5C3"/>
    </linearGradient>
    <linearGradient id="kiteCore" x1="0.5" y1="0" x2="0.5" y2="1">
      <stop offset="0" stop-color="#27CEAA"/><stop offset="1" stop-color="#109A83"/>
    </linearGradient>
  </defs>
  <rect x="64" y="64" width="896" height="896" rx="220" fill="url(#bg)"/>
  <g opacity="0.22" fill="#8EF0D0">
    <path d="M240 560c14-26 50-36 78-24 18-30 64-30 86-4 32-6 58 10 62 32-80 4-160 6-226-4z"/>
    <path d="M720 360c10-20 38-28 60-18 12-22 44-22 60-2 24-4 44 8 48 24-60 4-120 4-168-4z"/>
    <path d="M300 400c10-18 34-26 54-18 10-18 36-18 50-2 20-4 36 6 40 18-54 4-108 4-144 2z"/>
  </g>
  <path d="M180 740 C 360 676, 580 652, 780 636 S 1080 612, 1060 548 C 1040 500, 980 480, 940 496" fill="none" stroke="#8EF0D0" stroke-width="16" stroke-linecap="round" stroke-linejoin="round" opacity="0.22"/>
  <path d="M220 670 C 400 618, 610 596, 800 580 S 1100 556, 1080 500 C 1064 454, 1004 438, 964 456" fill="none" stroke="#22C7A3" stroke-width="14" stroke-linecap="round" stroke-linejoin="round" opacity="0.20"/>
  <path d="M940 496 c 24 -12, 46 10, 34 30 c -12 20 -44 10 -46 -10 c -1 -12 4 -18 12 -20" fill="none" stroke="#22C7A3" stroke-width="8" stroke-linecap="round" opacity="0.30"/>
  <path d="M964 456 c 22 -10, 40 10, 30 26 c -10 16 -36 8 -38 -8 c -1 -10 4 -14 8 -18" fill="none" stroke="#8EF0D0" stroke-width="7" stroke-linecap="round" opacity="0.30"/>
  <path d="M512 332c140 0 226 54 226 54v94c0 122-118 206-226 254-108-48-226-132-226-254v-94s86-54 226-54z" fill="#22C7A3" fill-opacity="0.12" stroke="#22C7A3" stroke-opacity="0.35" stroke-width="12"/>
  <path d="M512 312 660 450 512 588 364 450 512 312z" fill="url(#kiteCore)"/>
  <path d="M512 312 L512 588" stroke="#0F1B19" stroke-opacity="0.55" stroke-width="6" stroke-linecap="round"/>
  <path d="M364 450 L660 450" stroke="#0F1B19" stroke-opacity="0.35" stroke-width="5" stroke-linecap="round"/>
  <path d="M438 380 L512 450 L586 380" stroke="#61E5C3" stroke-opacity="0.35" stroke-width="4" fill="none"/>
  <path d="M512 588 C 470 670, 420 730, 332 774 S 190 842, 168 826" stroke="url(#mint)" stroke-width="18" stroke-linecap="round" fill="none" opacity="0.95"/>
  <path d="M452 700l24 20-24 20-24-20 24-20z" fill="#22C7A3" opacity="0.86"/>
  <path d="M360 762l22 18-22 18-22-18 22-18z" fill="#22C7A3" opacity="0.74"/>
  <circle cx="760" cy="320" r="16" fill="#FDE68A"/>
</svg>
